<?xml version="1.0" standalone="no"?>
<!DOCTYPE svg PUBLIC "-//W3C//DTD SVG 20010904//EN"
 "http://www.w3.org/TR/2001/REC-SVG-20010904/DTD/svg10.dtd">
<svg version="1.0" xmlns="http://www.w3.org/2000/svg"
 width="512.000000pt" height="512.000000pt" viewBox="0 0 512.000000 512.000000"
 preserveAspectRatio="xMidYMid meet">
<metadata>
Created by potrace 1.14, written by Peter Selinger 2001-2017
</metadata>
<g transform="translate(0.000000,512.000000) scale(0.100000,-0.100000)"
fill="#000000" stroke="none">
<path d="M0 2560 l0 -2560 2560 0 2560 0 0 2560 0 2560 -2560 0 -2560 0 0
-2560z m353 2223 c-7 -2 -13 -12 -13 -20 0 -9 -3 -14 -6 -10 -10 10 4 37 18
36 10 0 10 -2 1 -6z m4437 -15 c9 -20 9 -21 -2 -7 -7 9 -20 18 -28 22 -12 4
-12 6 2 6 10 1 22 -9 28 -21z m-3000 -50 c0 -4 -310 -8 -690 -8 l-690 0 0
-690 c0 -379 -4 -690 -8 -690 -11 0 -12 1372 -1 1386 10 13 1389 16 1389 2z
m1471 -2 c4 -31 5 -1363 1 -1373 -2 -7 -7 -13 -11 -13 -3 0 -6 309 -7 688 l0
687 -684 0 -685 0 0 -687 c0 -377 -3 -690 -7 -694 -5 -4 -9 -3 -9 2 -6 44 -3
1382 3 1390 11 15 1397 15 1399 0z m1461 5 c6 -24 3 -1391 -4 -1391 -4 0 -8
311 -8 690 l0 690 -696 0 c-382 0 -693 4 -690 8 6 10 1395 12 1398 3z m-2932
-1466 c0 -7 -221 -11 -690 -10 l-690 0 2 -685 3 -685 688 0 c466 1 687 -3 687
-10 0 -12 -1367 -14 -1386 -3 -12 8 -14 1375 -2 1393 9 14 1388 14 1388 0z
m1467 2 c9 -10 11 -1359 2 -1385 -6 -16 -53 -17 -697 -17 -380 0 -694 4 -699
8 -10 10 -12 1366 -2 1387 6 13 93 15 697 15 380 0 694 -4 699 -8z m1459 1
c13 -8 16 -1369 3 -1390 -11 -17 -1389 -20 -1389 -3 0 7 214 11 678 10 372 0
683 1 690 3 9 3 12 149 12 683 0 373 -3 679 -7 680 -5 0 -316 2 -693 4 -377 1
-687 3 -690 4 -3 1 3 5 12 9 23 9 1370 9 1384 0z m-2840 -2156 c0 -371 2 -678
5 -683 3 -5 283 -8 684 -7 l679 3 0 687 c1 377 4 690 9 694 4 4 8 3 8 -2 6
-41 4 -1364 -2 -1380 l-7 -21 -689 0 c-378 0 -693 3 -698 8 -7 5 -10 244 -9
696 1 378 2 693 3 698 1 6 5 3 10 -5 5 -8 8 -318 7 -688z m-776 -692 c380 0
690 -4 690 -8 0 -5 -313 -9 -695 -9 -625 0 -695 2 -699 16 -7 25 -4 1365 3
1376 3 6 7 -302 9 -683 l2 -692 690 0z m3627 685 c0 -488 -4 -695 -11 -697
-42 -6 -1386 -3 -1386 4 0 4 311 8 690 8 l690 0 0 690 c0 380 4 690 8 690 5 0
9 -313 9 -695z m-4368 -762 c14 -10 13 -11 -6 -6 -15 3 -23 13 -22 27 0 15 2
16 6 6 4 -8 13 -20 22 -27z m4428 12 c-4 -8 -11 -15 -17 -15 -6 0 -6 7 2 20
14 22 24 19 15 -5z"/>
<path d="M1886 3234 c-16 -15 -15 -1342 1 -1352 8 -5 1330 -8 1353 -3 4 1 5
1339 1 1361 -2 11 -1344 5 -1355 -6z"/>
</g>
</svg>
